<?xml version="1.0" standalone="no"?>
<!DOCTYPE svg PUBLIC "-//W3C//DTD SVG 20010904//EN"
 "http://www.w3.org/TR/2001/REC-SVG-20010904/DTD/svg10.dtd">
<svg version="1.0" xmlns="http://www.w3.org/2000/svg"
 width="512.000000pt" height="512.000000pt" viewBox="0 0 512.000000 512.000000"
 preserveAspectRatio="xMidYMid meet">
<metadata>
Created by potrace 1.14, written by Peter Selinger 2001-2017
</metadata>
<g transform="translate(0.000000,512.000000) scale(0.100000,-0.100000)"
fill="#000000" stroke="none">
<path d="M2355 5113 c-101 -11 -289 -40 -317 -49 -9 -3 -25 -6 -35 -8 -59 -12
-194 -50 -270 -77 -102 -35 -326 -134 -365 -161 -14 -10 -29 -18 -32 -18 -14
0 -193 -116 -284 -184 -157 -117 -328 -280 -441 -421 -31 -38 -59 -72 -62 -75
-3 -3 -40 -57 -81 -120 -85 -127 -171 -285 -218 -400 -17 -41 -35 -84 -40 -95
-46 -110 -118 -379 -136 -510 -3 -27 -8 -59 -10 -70 -23 -113 -22 -481 1 -650
22 -162 83 -415 99 -415 6 0 25 4 43 9 34 10 33 13 78 -124 l17 -50 -50 -116
c-208 -481 -260 -891 -147 -1178 77 -198 254 -337 490 -386 83 -17 253 -19
350 -3 28 4 68 10 90 13 159 23 472 122 614 194 l42 22 108 -35 c59 -19 118
-37 132 -40 265 -56 256 -54 337 -62 35 -3 73 -7 85 -10 25 -5 369 -5 407 0
14 2 56 7 95 11 38 4 72 8 75 10 3 1 28 6 55 9 82 11 283 62 380 96 231 82
404 168 595 295 162 109 216 153 374 310 210 207 353 406 489 679 96 194 196
511 223 712 3 27 8 58 10 69 8 39 18 211 18 315 0 224 -20 390 -76 614 -196
794 -779 1449 -1548 1743 -156 60 -357 111 -546 139 -100 15 -467 26 -549 17z
m-1884 -3751 c11 -18 26 -44 35 -57 14 -22 13 -24 -21 -45 -20 -13 -32 -27
-29 -33 86 -152 342 -436 524 -581 109 -88 280 -201 398 -264 l94 -50 -89 -31
c-225 -82 -421 -123 -588 -123 -173 -1 -290 30 -384 101 -247 185 -254 584
-22 1176 l12 29 26 -44 c14 -25 34 -60 44 -78z"/>
</g>
</svg>
